<!--?xml version="1.0" encoding="utf-8"?-->
<svg version="1.1" height="12px" xmlns="http://www.w3.org/2000/svg" xmlns:xlink="http://www.w3.org/1999/xlink" x="0px" y="0px" viewBox="0 0 502.2 72.3" style="enable-background:new 0 0 502.2 72.3" xml:space="preserve">
  <style type="text/css">.st0{fill:#1C5A7D;} .st1{fill:#9BBDAA;} .st2{fill:#C2CB7F;} .st3{fill:#4D868E;} .st4{fill:#C4D600;}</style>
  <path class="st0" d="M28.8,57.8L0.3,5.1c-0.4-0.8-0.4-1.8,0.1-2.5c0.5-0.8,1.3-1.3,2.2-1.3h6.6c0.9,0,1.8,0.5,2.3,1.4L35,46.3L28.8,57.8z"></path>
  <path class="st0" d="M39.6,54.9L39.6,54.9L68.1,2.6c0.5-0.8,1.3-1.3,2.3-1.3H77c0.9,0,1.8,0.5,2.2,1.3c0.5,0.8,0.5,1.8,0,2.6L47.3,63.8c-0.4,0.8-2.9,4.6-7.7,4.6c-2.6,0-4.6-1.1-6-2.5L39.6,54.9z"></path>
  <path class="st1" d="M217.7,57.8L189.2,5.1c-0.4-0.8-0.4-1.8,0.1-2.5c0.5-0.8,1.3-1.3,2.2-1.3h6.6c0.9,0,1.8,0.5,2.3,1.4L224,46.3L217.7,57.8z"></path>
  <path class="st1" d="M228.6,54.9L228.6,54.9l28.5-52.3c0.5-0.8,1.3-1.3,2.3-1.3h6.6c0.9,0,1.8,0.5,2.2,1.3c0.5,0.8,0.5,1.8,0,2.6l-31.9,58.7c-0.4,0.8-2.9,4.6-7.7,4.6c-2.6,0-4.6-1.1-6-2.5L228.6,54.9z"></path>
  <path class="st2" d="M340.8,57.8L312.4,5.1c-0.4-0.8-0.4-1.8,0.1-2.5c0.5-0.8,1.3-1.3,2.2-1.3h6.6c0.9,0,1.8,0.5,2.3,1.4l23.6,43.7L340.8,57.8z"></path>
  <path class="st2" d="M351.7,54.9L351.7,54.9l28.5-52.3c0.5-0.8,1.3-1.3,2.3-1.3h6.6c0.9,0,1.8,0.5,2.2,1.3c0.5,0.8,0.5,1.8,0,2.6l-31.9,58.7c-0.4,0.8-2.9,4.6-7.7,4.6c-2.6,0-4.6-1.1-6-2.5L351.7,54.9z"></path>
  <path class="st3" d="M137.2,1.2h-6c-1.4,0-2.6,1.2-2.6,2.6v59.1c0,3.1,2.5,5.6,5.6,5.6c3.1,0,5.6-2.5,5.6-5.6V3.8C139.8,2.4,138.6,1.2,137.2,1.2z"></path>
  <path class="st4" d="M446,66.2l5.3-9.6c-6.3-4.6-10.5-12-10.5-20.4c0-13.9,11.3-25.2,25.2-25.2c3.3,0,6.4,0.7,9.3,1.8l5.3-9.6c-4.5-2-9.4-3.1-14.6-3.1c-19.9,0-36.2,16.2-36.2,36.2C429.9,48.7,436.3,59.7,446,66.2z"></path>
  <path class="st4" d="M487.7,7.2l-5.3,9.7c5.4,4.6,8.9,11.5,8.9,19.2c0,13.9-11.3,25.2-25.2,25.2c-2.6,0-5.1-0.4-7.5-1.1l-5.3,9.7c4,1.5,8.3,2.3,12.8,2.3c19.9,0,36.2-16.2,36.2-36.2C502.2,24.3,496.5,13.8,487.7,7.2z"></path>
</svg>
